<svg width="286" height="58" viewBox="0 0 286 58" fill="none" xmlns="http://www.w3.org/2000/svg">
<path d="M59.9298 10.5721C59.8317 10.5721 59.7482 10.5426 59.6795 10.4837C59.6206 10.415 59.5912 10.3316 59.5912 10.2334V1.57551H56.7641C56.6659 1.57551 56.5825 1.54606 56.5138 1.48716C56.4549 1.41845 56.4254 1.33501 56.4254 1.23685V0.618423C56.4254 0.520261 56.4549 0.436823 56.5138 0.368109C56.5825 0.299396 56.6659 0.265039 56.7641 0.265039H63.8612C63.9692 0.265039 64.0526 0.299396 64.1115 0.368109C64.1802 0.427007 64.2146 0.510445 64.2146 0.618423V1.23685C64.2146 1.33501 64.1802 1.41845 64.1115 1.48716C64.0428 1.54606 63.9594 1.57551 63.8612 1.57551H61.0489V10.2334C61.0489 10.3316 61.0145 10.415 60.9458 10.4837C60.8771 10.5426 60.7936 10.5721 60.6955 10.5721H59.9298Z" fill="#6000FF"/>
<path d="M65.7396 10.5721C65.6414 10.5721 65.558 10.5426 65.4893 10.4837C65.4304 10.415 65.4009 10.3316 65.4009 10.2334V0.456455C65.4009 0.358293 65.4304 0.279763 65.4893 0.220866C65.558 0.152152 65.6414 0.117795 65.7396 0.117795H66.4758C66.574 0.117795 66.6525 0.152152 66.7114 0.220866C66.7801 0.279763 66.8145 0.358293 66.8145 0.456455V3.88723C67.0992 3.52403 67.4329 3.24918 67.8157 3.06267C68.1986 2.86634 68.6747 2.76818 69.244 2.76818C70.1864 2.76818 70.9177 3.07248 71.4379 3.68109C71.968 4.27988 72.2331 5.0799 72.2331 6.08116V10.2334C72.2331 10.3316 72.1987 10.415 72.13 10.4837C72.0711 10.5426 71.9926 10.5721 71.8944 10.5721H71.1582C71.06 10.5721 70.9766 10.5426 70.9079 10.4837C70.849 10.415 70.8195 10.3316 70.8195 10.2334V6.15478C70.8195 5.45783 70.6477 4.91794 70.3042 4.5351C69.9704 4.15227 69.4845 3.96085 68.8464 3.96085C68.228 3.96085 67.7323 4.15718 67.3593 4.54983C66.9961 4.93266 66.8145 5.46765 66.8145 6.15478V10.2334C66.8145 10.3316 66.7801 10.415 66.7114 10.4837C66.6525 10.5426 66.574 10.5721 66.4758 10.5721H65.7396Z" fill="#6000FF"/>
<path d="M74.6975 10.5721C74.5994 10.5721 74.5159 10.5426 74.4472 10.4837C74.3883 10.415 74.3589 10.3316 74.3589 10.2334V3.26881C74.3589 3.17065 74.3883 3.08721 74.4472 3.01849C74.5159 2.94978 74.5994 2.91542 74.6975 2.91542H75.3749C75.473 2.91542 75.5565 2.94978 75.6252 3.01849C75.6939 3.08721 75.7282 3.17065 75.7282 3.26881V3.91668C76.1307 3.24918 76.8178 2.91542 77.7897 2.91542H78.3639C78.4621 2.91542 78.5406 2.94978 78.5995 3.01849C78.6682 3.07739 78.7026 3.15592 78.7026 3.25408V3.85778C78.7026 3.95595 78.6682 4.03448 78.5995 4.09337C78.5406 4.15227 78.4621 4.18172 78.3639 4.18172H77.4804C76.9504 4.18172 76.5332 4.33878 76.2289 4.6529C75.9246 4.9572 75.7724 5.37439 75.7724 5.90447V10.2334C75.7724 10.3316 75.7381 10.415 75.6693 10.4837C75.6006 10.5426 75.5172 10.5721 75.419 10.5721H74.6975Z" fill="#6000FF"/>
<path d="M80.1733 1.48716C80.0751 1.48716 79.9917 1.45771 79.923 1.39881C79.8641 1.3301 79.8346 1.24666 79.8346 1.1485V0.353385C79.8346 0.255222 79.8641 0.171784 79.923 0.103071C79.9917 0.034357 80.0751 0 80.1733 0H81.1009C81.1991 0 81.2825 0.034357 81.3512 0.103071C81.4199 0.171784 81.4543 0.255222 81.4543 0.353385V1.1485C81.4543 1.24666 81.4199 1.3301 81.3512 1.39881C81.2825 1.45771 81.1991 1.48716 81.1009 1.48716H80.1733ZM80.2911 10.5721C80.1929 10.5721 80.1095 10.5426 80.0408 10.4837C79.9819 10.415 79.9524 10.3316 79.9524 10.2334V3.25408C79.9524 3.15592 79.9819 3.07739 80.0408 3.01849C80.1095 2.94978 80.1929 2.91542 80.2911 2.91542H80.9978C81.096 2.91542 81.1745 2.94978 81.2334 3.01849C81.3021 3.07739 81.3365 3.15592 81.3365 3.25408V10.2334C81.3365 10.3316 81.3021 10.415 81.2334 10.4837C81.1745 10.5426 81.096 10.5721 80.9978 10.5721H80.2911Z" fill="#6000FF"/>
<path d="M86.1836 10.5721C85.9284 10.5721 85.7468 10.4494 85.6388 10.204L82.9148 3.37188L82.8853 3.22464C82.8853 3.13629 82.9148 3.06267 82.9737 3.00377C83.0326 2.94487 83.1062 2.91542 83.1945 2.91542H83.9013C84.0682 2.91542 84.1909 2.99886 84.2694 3.16574L86.5075 8.96714L88.7456 3.16574C88.834 2.99886 88.9518 2.91542 89.099 2.91542H89.8205C89.899 2.91542 89.9677 2.94487 90.0266 3.00377C90.0953 3.06267 90.1297 3.13629 90.1297 3.22464L90.1003 3.37188L87.3615 10.204C87.2535 10.4494 87.0719 10.5721 86.8167 10.5721H86.1836Z" fill="#6000FF"/>
<path d="M94.461 10.7193C93.4499 10.7193 92.6401 10.4101 92.0314 9.7917C91.4327 9.16346 91.1038 8.30945 91.0449 7.22966L91.0302 6.72903L91.0449 6.24313C91.1136 5.18297 91.4474 4.33878 92.0462 3.71054C92.6548 3.0823 93.4548 2.76818 94.4462 2.76818C95.5358 2.76818 96.38 3.11666 96.9788 3.81361C97.5776 4.50075 97.877 5.43329 97.877 6.61124V6.86155C97.877 6.95971 97.8427 7.04315 97.7739 7.11187C97.715 7.17076 97.6365 7.20021 97.5384 7.20021H92.4437V7.33273C92.4732 7.97079 92.6646 8.51559 93.018 8.96714C93.3812 9.40887 93.8573 9.62973 94.4462 9.62973C94.8978 9.62973 95.2659 9.54139 95.5506 9.36469C95.8451 9.17818 96.061 8.98677 96.1984 8.79044C96.2868 8.67265 96.3506 8.60393 96.3899 8.5843C96.4389 8.55485 96.5224 8.54013 96.6402 8.54013H97.3617C97.45 8.54013 97.5236 8.56467 97.5825 8.61375C97.6414 8.66283 97.6709 8.73155 97.6709 8.81989C97.6709 9.03585 97.5334 9.29598 97.2586 9.60028C96.9936 9.90459 96.6156 10.1696 96.1248 10.3954C95.6438 10.6114 95.0892 10.7193 94.461 10.7193ZM96.4782 6.18423V6.14006C96.4782 5.46274 96.2917 4.91303 95.9187 4.49093C95.5555 4.05902 95.0647 3.84306 94.4462 3.84306C93.8278 3.84306 93.337 4.05902 92.9738 4.49093C92.6204 4.91303 92.4437 5.46274 92.4437 6.14006V6.18423H96.4782Z" fill="#6000FF"/>
<path d="M50.0821 13.5588C48.8581 11.4523 46.7515 9.97198 43.9589 9.26031C43.3041 9.0895 42.6494 8.97564 41.9377 8.9187C42.7632 10.9114 43.4465 13.0464 43.9873 15.3238C44.5282 15.6369 44.8983 16.007 45.1545 16.434C47.0333 19.6793 42.1654 28.8741 29.9758 36.4748C27.8408 37.8128 25.7598 38.8945 23.7672 39.8055C24.3365 42.4814 25.0197 44.3318 25.5606 45.2712C28.0088 44.1894 30.5167 42.8515 32.9933 41.3142C46.8938 32.6318 54.2412 20.7325 50.0821 13.5588ZM21.262 20.9887C27.6415 17.0034 33.5655 15.0676 37.921 14.6121C37.3232 12.6194 36.6115 10.7975 35.786 9.14644C30.4028 10.0005 24.2511 12.4202 18.2445 16.1493C4.3469 24.8318 -3.00045 36.731 1.15859 43.9048C2.38267 46.0113 4.48924 47.4916 7.28186 48.2033C8.56288 48.5164 9.9293 48.6588 11.4096 48.6588C14.057 48.6588 17.0489 48.1748 20.2088 47.2354C19.4402 45.6697 18.8423 43.7909 18.4153 41.8267C14.2876 43.0223 10.8687 43.2215 8.67675 42.6807C7.39573 42.3391 6.51325 41.7982 6.08624 41.0296C5.83004 40.5741 5.6877 40.0048 5.6877 39.35C5.68486 35.2792 10.7548 27.5362 21.262 20.9887Z" fill="#FF4D5B"/>
<path d="M33.9327 33.7708C33.648 36.7029 33.164 39.3218 32.5093 41.5992C31.2852 45.8977 29.5487 48.9437 27.8692 50.424C27.1006 51.1357 26.3319 51.5058 25.6203 51.5058C25.5349 51.5058 25.4495 51.5057 25.3641 51.4488C23.9407 51.3065 22.3181 49.7408 20.8663 47.0364C20.0976 45.5846 19.3575 43.7912 18.7597 41.6846C18.2758 40.005 17.8772 38.1262 17.5925 36.0766C17.3648 34.5678 17.2225 32.9452 17.1655 31.2372C17.1086 30.4401 17.0801 29.5861 17.0801 28.7321C17.0801 26.9671 17.1655 25.2876 17.3079 23.6934C17.5925 20.7613 18.0765 18.1423 18.7312 15.865C18.5604 15.9504 18.4181 16.0358 18.2473 16.1496C15.9415 17.573 13.8349 19.1102 11.9276 20.6759C11.586 23.2095 11.3867 25.9138 11.3867 28.7321V28.9598C11.4152 34.0839 12.0415 38.8094 13.1801 42.8802C13.721 44.8729 14.3758 46.6948 15.1444 48.3459C16.0838 50.3955 17.194 52.1605 18.4466 53.5554C20.5247 55.8897 22.9728 57.1992 25.6203 57.1992C30.602 57.1992 34.8151 52.5875 37.3487 45.2715C38.2312 42.7379 38.8859 39.8912 39.3129 36.7883C39.6545 34.2547 39.8538 31.5503 39.8538 28.7321V28.5043C38.2597 30.2408 36.267 32.0343 33.9327 33.7708ZM23.3998 6.98322C24.1684 6.30001 24.9371 5.9584 25.6203 5.9584C25.6772 5.9584 25.7626 5.9584 25.8195 5.98687C27.2429 6.10074 28.9224 7.66643 30.3743 10.4277C31.1429 11.8796 31.883 13.673 32.4808 15.7511C32.9363 17.3737 33.3348 19.2241 33.6195 21.2168C33.8757 22.8394 34.0465 24.5759 34.1035 26.4262C36.3808 24.462 38.1743 22.5832 39.3699 21.1029C39.3129 20.5905 39.2275 20.1065 39.1421 19.6226C38.8859 17.8576 38.5159 16.1781 38.0604 14.5839C37.5195 12.5912 36.8648 10.7693 36.0962 9.11825C35.1567 7.06862 34.0465 5.30366 32.794 3.90877C30.7159 1.57447 28.2677 0.264984 25.6203 0.264984C20.6385 0.264984 16.4254 4.87665 13.8918 12.1927C14.3188 11.8796 14.7743 11.5949 15.2298 11.3102C17.9342 9.63066 20.667 8.17884 23.3998 6.98322Z" fill="#6000FF"/>
<path d="M60.6639 56.4631C60.1733 56.4631 59.7562 56.2913 59.4128 55.9477C59.0693 55.6041 58.8976 55.187 58.8976 54.6961V19.9467C58.8976 19.4558 59.0693 19.0387 59.4128 18.6951C59.7562 18.3515 60.1733 18.1797 60.6639 18.1797H66.6989C67.1896 18.1797 67.6066 18.3515 67.9501 18.6951C68.2935 19.0387 68.4653 19.4558 68.4653 19.9467V22.9651C71.3601 19.2841 75.457 17.4435 80.7561 17.4435C85.2701 17.4435 88.8518 18.9405 91.5013 21.9344C94.1508 24.8793 95.4756 28.904 95.4756 34.0084V54.6961C95.4756 55.187 95.3039 55.6041 94.9604 55.9477C94.666 56.2913 94.249 56.4631 93.7092 56.4631H87.2327C86.742 56.4631 86.325 56.2913 85.9815 55.9477C85.638 55.6041 85.4663 55.187 85.4663 54.6961V34.4501C85.4663 31.5544 84.7549 29.3212 83.332 27.7506C81.9582 26.1309 79.9465 25.321 77.297 25.321C74.6965 25.321 72.6358 26.1309 71.1148 27.7506C69.6428 29.3702 68.9069 31.6034 68.9069 34.4501V54.6961C68.9069 55.187 68.7351 55.6041 68.3917 55.9477C68.0973 56.2913 67.6802 56.4631 67.1405 56.4631H60.6639Z" fill="#FF4D5B"/>
<path d="M114.686 57.1993C109.24 57.1993 104.898 55.6287 101.66 52.4875C98.4703 49.2972 96.7775 44.8308 96.5813 39.0883L96.5077 37.2478L96.5813 35.4072C96.8266 29.812 98.5439 25.4192 101.733 22.2289C104.971 19.0387 109.289 17.4435 114.686 17.4435C120.476 17.4435 124.941 19.2104 128.081 22.7443C131.27 26.2781 132.865 30.9899 132.865 36.8797V38.4257C132.865 38.9165 132.693 39.3337 132.35 39.6773C132.006 40.0209 131.565 40.1926 131.025 40.1926H106.591V40.7816C106.689 43.4811 107.425 45.7634 108.798 47.6284C110.221 49.4445 112.159 50.3525 114.613 50.3525C117.508 50.3525 119.838 49.2236 121.604 46.9659C122.046 46.426 122.389 46.0824 122.635 45.9351C122.929 45.7879 123.346 45.7143 123.886 45.7143H130.215C130.657 45.7143 131.025 45.8615 131.319 46.156C131.663 46.4014 131.835 46.7204 131.835 47.1131C131.835 48.291 131.123 49.6899 129.7 51.3095C128.326 52.8801 126.339 54.2544 123.739 55.4324C121.138 56.6103 118.121 57.1993 114.686 57.1993ZM122.856 34.0084V33.7876C122.856 30.8918 122.12 28.5604 120.648 26.7935C119.225 25.0266 117.238 24.1431 114.686 24.1431C112.135 24.1431 110.148 25.0266 108.725 26.7935C107.302 28.5604 106.591 30.8918 106.591 33.7876V34.0084H122.856Z" fill="#FF4D5B"/>
<path d="M143.426 56.4631C142.788 56.4631 142.273 56.3158 141.881 56.0213C141.537 55.6778 141.243 55.2115 140.997 54.6225L130.473 20.462C130.424 20.3148 130.399 20.0939 130.399 19.7994C130.399 19.3577 130.547 18.9896 130.841 18.6951C131.184 18.3515 131.552 18.1797 131.945 18.1797H137.391C137.931 18.1797 138.372 18.327 138.716 18.6215C139.059 18.9159 139.28 19.235 139.378 19.5785L146.591 43.9474L154.245 19.7994C154.392 19.3577 154.638 18.9896 154.981 18.6951C155.373 18.3515 155.864 18.1797 156.453 18.1797H160.133C160.722 18.1797 161.188 18.3515 161.531 18.6951C161.924 18.9896 162.194 19.3577 162.341 19.7994L169.995 43.9474L177.207 19.5785C177.257 19.235 177.453 18.9159 177.796 18.6215C178.189 18.327 178.63 18.1797 179.121 18.1797H184.567C185.009 18.1797 185.377 18.3515 185.671 18.6951C186.015 18.9896 186.186 19.3577 186.186 19.7994L186.039 20.462L175.515 54.6225C175.318 55.2115 175.024 55.6778 174.632 56.0213C174.288 56.3158 173.797 56.4631 173.16 56.4631H168.376C167.1 56.4631 166.29 55.8495 165.947 54.6225L158.293 31.358L150.639 54.6225C150.246 55.8495 149.412 56.4631 148.136 56.4631H143.426Z" fill="#FF4D5B"/>
<path d="M204.02 56.4631C199.555 56.4631 196.194 55.3097 193.937 53.0028C191.729 50.6469 190.625 47.2113 190.625 42.6958V25.9836H184.811C184.32 25.9836 183.903 25.8119 183.56 25.4683C183.216 25.0756 183.045 24.6339 183.045 24.1431V19.9467C183.045 19.4558 183.216 19.0387 183.56 18.6951C183.903 18.3515 184.32 18.1797 184.811 18.1797H190.625V5.95851C190.625 5.41862 190.797 5.00143 191.14 4.70694C191.484 4.36337 191.901 4.19159 192.392 4.19159H198.353C198.893 4.19159 199.31 4.36337 199.604 4.70694C199.948 5.00143 200.119 5.41862 200.119 5.95851V18.1797H209.319C209.859 18.1797 210.276 18.3515 210.57 18.6951C210.914 18.9896 211.085 19.4068 211.085 19.9467V24.1431C211.085 24.683 210.914 25.1247 210.57 25.4683C210.227 25.8119 209.81 25.9836 209.319 25.9836H200.119V41.9596C200.119 44.0701 200.487 45.6652 201.223 46.745C201.959 47.8248 203.186 48.3647 204.903 48.3647H209.981C210.472 48.3647 210.889 48.5364 211.233 48.88C211.576 49.2236 211.748 49.6408 211.748 50.1316V54.6961C211.748 55.187 211.576 55.6041 211.233 55.9477C210.938 56.2913 210.521 56.4631 209.981 56.4631H204.02Z" fill="#FF4D5B"/>
<path d="M228.58 57.1993C222.84 57.1993 218.399 55.7268 215.259 52.782C212.119 49.788 210.426 45.7143 210.181 40.5608L210.107 37.3214L210.181 34.082C210.426 28.9776 212.143 24.9284 215.333 21.9344C218.522 18.9405 222.938 17.4435 228.58 17.4435C234.223 17.4435 238.639 18.9405 241.828 21.9344C245.017 24.9284 246.734 28.9776 246.98 34.082C247.029 34.671 247.053 35.7508 247.053 37.3214C247.053 38.892 247.029 39.9718 246.98 40.5608C246.734 45.7143 245.042 49.788 241.901 52.782C238.761 55.7268 234.321 57.1993 228.58 57.1993ZM228.58 49.9107C231.181 49.9107 233.192 49.1009 234.615 47.4812C236.038 45.8124 236.823 43.3829 236.97 40.1926C237.019 39.7018 237.044 38.7448 237.044 37.3214C237.044 35.898 237.019 34.941 236.97 34.4501C236.823 31.2599 236.038 28.8549 234.615 27.2352C233.192 25.5665 231.181 24.7321 228.58 24.7321C225.98 24.7321 223.968 25.5665 222.545 27.2352C221.122 28.8549 220.337 31.2599 220.19 34.4501L220.117 37.3214L220.19 40.1926C220.337 43.3829 221.122 45.8124 222.545 47.4812C223.968 49.1009 225.98 49.9107 228.58 49.9107Z" fill="#FF4D5B"/>
<path d="M250.35 56.4631C249.86 56.4631 249.443 56.2913 249.099 55.9477C248.756 55.6041 248.584 55.187 248.584 54.6961V19.9467C248.584 19.4558 248.756 19.0387 249.099 18.6951C249.443 18.3515 249.86 18.1797 250.35 18.1797H256.385C256.876 18.1797 257.293 18.3515 257.636 18.6951C257.98 19.0387 258.152 19.4558 258.152 19.9467V22.9651C261.046 19.2841 265.143 17.4435 270.442 17.4435C274.956 17.4435 278.538 18.9405 281.188 21.9344C283.837 24.8793 285.162 28.904 285.162 34.0084V54.6961C285.162 55.187 284.99 55.6041 284.647 55.9477C284.352 56.2913 283.935 56.4631 283.396 56.4631H276.919C276.428 56.4631 276.011 56.2913 275.668 55.9477C275.324 55.6041 275.153 55.187 275.153 54.6961V34.4501C275.153 31.5544 274.441 29.3212 273.018 27.7506C271.644 26.1309 269.633 25.321 266.983 25.321C264.383 25.321 262.322 26.1309 260.801 27.7506C259.329 29.3702 258.593 31.6034 258.593 34.4501V54.6961C258.593 55.187 258.421 55.6041 258.078 55.9477C257.784 56.2913 257.367 56.4631 256.827 56.4631H250.35Z" fill="#FF4D5B"/>
<mask id="mask0" mask-type="alpha" maskUnits="userSpaceOnUse" x="58" y="4" width="228" height="54">
<path d="M60.6639 56.4631C60.1733 56.4631 59.7562 56.2913 59.4128 55.9477C59.0693 55.6041 58.8976 55.187 58.8976 54.6961V19.9467C58.8976 19.4558 59.0693 19.0387 59.4128 18.6951C59.7562 18.3515 60.1733 18.1797 60.6639 18.1797H66.6989C67.1896 18.1797 67.6066 18.3515 67.9501 18.6951C68.2935 19.0387 68.4653 19.4558 68.4653 19.9467V22.9651C71.3601 19.2841 75.457 17.4435 80.7561 17.4435C85.2701 17.4435 88.8518 18.9405 91.5013 21.9344C94.1508 24.8793 95.4756 28.904 95.4756 34.0084V54.6961C95.4756 55.187 95.3039 55.6041 94.9604 55.9477C94.666 56.2913 94.249 56.4631 93.7092 56.4631H87.2327C86.742 56.4631 86.325 56.2913 85.9815 55.9477C85.638 55.6041 85.4663 55.187 85.4663 54.6961V34.4501C85.4663 31.5544 84.7549 29.3212 83.332 27.7506C81.9582 26.1309 79.9465 25.321 77.297 25.321C74.6965 25.321 72.6358 26.1309 71.1148 27.7506C69.6428 29.3702 68.9069 31.6034 68.9069 34.4501V54.6961C68.9069 55.187 68.7351 55.6041 68.3917 55.9477C68.0973 56.2913 67.6802 56.4631 67.1405 56.4631H60.6639Z" fill="#FF4D5B"/>
<path d="M114.686 57.1993C109.24 57.1993 104.898 55.6287 101.66 52.4875C98.4703 49.2972 96.7775 44.8308 96.5813 39.0883L96.5077 37.2478L96.5813 35.4072C96.8266 29.812 98.5439 25.4192 101.733 22.2289C104.971 19.0387 109.289 17.4435 114.686 17.4435C120.476 17.4435 124.941 19.2104 128.081 22.7443C131.27 26.2781 132.865 30.9899 132.865 36.8797V38.4257C132.865 38.9165 132.693 39.3337 132.35 39.6773C132.006 40.0209 131.565 40.1926 131.025 40.1926H106.591V40.7816C106.689 43.4811 107.425 45.7634 108.798 47.6284C110.221 49.4445 112.159 50.3525 114.613 50.3525C117.508 50.3525 119.838 49.2236 121.604 46.9659C122.046 46.426 122.389 46.0824 122.635 45.9351C122.929 45.7879 123.346 45.7143 123.886 45.7143H130.215C130.657 45.7143 131.025 45.8615 131.319 46.156C131.663 46.4014 131.835 46.7204 131.835 47.1131C131.835 48.291 131.123 49.6899 129.7 51.3095C128.326 52.8801 126.339 54.2544 123.739 55.4324C121.138 56.6103 118.121 57.1993 114.686 57.1993ZM122.856 34.0084V33.7876C122.856 30.8918 122.12 28.5604 120.648 26.7935C119.225 25.0266 117.238 24.1431 114.686 24.1431C112.135 24.1431 110.148 25.0266 108.725 26.7935C107.302 28.5604 106.591 30.8918 106.591 33.7876V34.0084H122.856Z" fill="#FF4D5B"/>
<path d="M143.426 56.4631C142.788 56.4631 142.273 56.3158 141.881 56.0213C141.537 55.6778 141.243 55.2115 140.997 54.6225L130.473 20.462C130.424 20.3148 130.399 20.0939 130.399 19.7994C130.399 19.3577 130.547 18.9896 130.841 18.6951C131.184 18.3515 131.552 18.1797 131.945 18.1797H137.391C137.931 18.1797 138.372 18.327 138.716 18.6215C139.059 18.9159 139.28 19.235 139.378 19.5785L146.591 43.9474L154.245 19.7994C154.392 19.3577 154.638 18.9896 154.981 18.6951C155.373 18.3515 155.864 18.1797 156.453 18.1797H160.133C160.722 18.1797 161.188 18.3515 161.531 18.6951C161.924 18.9896 162.194 19.3577 162.341 19.7994L169.995 43.9474L177.207 19.5785C177.257 19.235 177.453 18.9159 177.796 18.6215C178.189 18.327 178.63 18.1797 179.121 18.1797H184.567C185.009 18.1797 185.377 18.3515 185.671 18.6951C186.015 18.9896 186.186 19.3577 186.186 19.7994L186.039 20.462L175.515 54.6225C175.318 55.2115 175.024 55.6778 174.632 56.0213C174.288 56.3158 173.797 56.4631 173.16 56.4631H168.376C167.1 56.4631 166.29 55.8495 165.947 54.6225L158.293 31.358L150.639 54.6225C150.246 55.8495 149.412 56.4631 148.136 56.4631H143.426Z" fill="#FF4D5B"/>
<path d="M204.02 56.4631C199.555 56.4631 196.194 55.3097 193.937 53.0028C191.729 50.6469 190.625 47.2113 190.625 42.6958V25.9836H184.811C184.32 25.9836 183.903 25.8119 183.56 25.4683C183.216 25.0756 183.045 24.6339 183.045 24.1431V19.9467C183.045 19.4558 183.216 19.0387 183.56 18.6951C183.903 18.3515 184.32 18.1797 184.811 18.1797H190.625V5.95851C190.625 5.41862 190.797 5.00143 191.14 4.70694C191.484 4.36337 191.901 4.19159 192.392 4.19159H198.353C198.893 4.19159 199.31 4.36337 199.604 4.70694C199.948 5.00143 200.119 5.41862 200.119 5.95851V18.1797H209.319C209.859 18.1797 210.276 18.3515 210.57 18.6951C210.914 18.9896 211.085 19.4068 211.085 19.9467V24.1431C211.085 24.683 210.914 25.1247 210.57 25.4683C210.227 25.8119 209.81 25.9836 209.319 25.9836H200.119V41.9596C200.119 44.0701 200.487 45.6652 201.223 46.745C201.959 47.8248 203.186 48.3647 204.903 48.3647H209.981C210.472 48.3647 210.889 48.5364 211.233 48.88C211.576 49.2236 211.748 49.6408 211.748 50.1316V54.6961C211.748 55.187 211.576 55.6041 211.233 55.9477C210.938 56.2913 210.521 56.4631 209.981 56.4631H204.02Z" fill="#FF4D5B"/>
<path d="M228.58 57.1993C222.84 57.1993 218.399 55.7268 215.259 52.782C212.119 49.788 210.426 45.7143 210.181 40.5608L210.107 37.3214L210.181 34.082C210.426 28.9776 212.143 24.9284 215.333 21.9344C218.522 18.9405 222.938 17.4435 228.58 17.4435C234.223 17.4435 238.639 18.9405 241.828 21.9344C245.017 24.9284 246.734 28.9776 246.98 34.082C247.029 34.671 247.053 35.7508 247.053 37.3214C247.053 38.892 247.029 39.9718 246.98 40.5608C246.734 45.7143 245.042 49.788 241.901 52.782C238.761 55.7268 234.321 57.1993 228.58 57.1993ZM228.58 49.9107C231.181 49.9107 233.192 49.1009 234.615 47.4812C236.038 45.8124 236.823 43.3829 236.97 40.1926C237.019 39.7018 237.044 38.7448 237.044 37.3214C237.044 35.898 237.019 34.941 236.97 34.4501C236.823 31.2599 236.038 28.8549 234.615 27.2352C233.192 25.5665 231.181 24.7321 228.58 24.7321C225.98 24.7321 223.968 25.5665 222.545 27.2352C221.122 28.8549 220.337 31.2599 220.19 34.4501L220.117 37.3214L220.19 40.1926C220.337 43.3829 221.122 45.8124 222.545 47.4812C223.968 49.1009 225.98 49.9107 228.58 49.9107Z" fill="#FF4D5B"/>
<path d="M250.35 56.4631C249.86 56.4631 249.443 56.2913 249.099 55.9477C248.756 55.6041 248.584 55.187 248.584 54.6961V19.9467C248.584 19.4558 248.756 19.0387 249.099 18.6951C249.443 18.3515 249.86 18.1797 250.35 18.1797H256.385C256.876 18.1797 257.293 18.3515 257.636 18.6951C257.98 19.0387 258.152 19.4558 258.152 19.9467V22.9651C261.046 19.2841 265.143 17.4435 270.442 17.4435C274.956 17.4435 278.538 18.9405 281.188 21.9344C283.837 24.8793 285.162 28.904 285.162 34.0084V54.6961C285.162 55.187 284.99 55.6041 284.647 55.9477C284.352 56.2913 283.935 56.4631 283.396 56.4631H276.919C276.428 56.4631 276.011 56.2913 275.668 55.9477C275.324 55.6041 275.153 55.187 275.153 54.6961V34.4501C275.153 31.5544 274.441 29.3212 273.018 27.7506C271.644 26.1309 269.633 25.321 266.983 25.321C264.383 25.321 262.322 26.1309 260.801 27.7506C259.329 29.3702 258.593 31.6034 258.593 34.4501V54.6961C258.593 55.187 258.421 55.6041 258.078 55.9477C257.784 56.2913 257.367 56.4631 256.827 56.4631H250.35Z" fill="#FF4D5B"/>
</mask>
<g mask="url(#mask0)">
<path d="M53.9876 45.2502C53.9876 45.2502 67.2868 51.8324 76.5638 51.2569C86.7509 50.625 89.9622 41.9759 100.11 40.8642C110.715 39.7023 115.852 47.7729 126.446 46.5133C136.309 45.3406 139.373 37.3375 149.24 36.1921C159.745 34.9724 164.848 43.295 175.325 41.865C184.623 40.596 187.372 33.2774 196.615 31.6868C208.311 29.6739 214.464 38.7677 226.21 37.0261C236.122 35.5563 239.24 26.8718 249.254 26.681C257.469 26.5245 260.67 34.037 268.822 32.9737C276.369 31.9895 285.099 23.2723 285.099 23.2723L288.547 59.5255L57.4352 81.5035L53.9876 45.2502Z" fill="#6000FF"/>
</g>
</svg>
